<svg xmlns="http://www.w3.org/2000/svg" viewBox="0 0 100 120" role="img" aria-label="Pip, temporary small fox character"><path d="M68 77Q98 65 91 103Q84 119 58 107" fill="#c59862"/><path d="M89 84Q96 108 75 111L74 98Z" fill="#f7eedc"/><path d="M26 60Q12 88 29 104Q50 119 69 103Q86 87 71 60" fill="#c59862"/><ellipse cx="49" cy="87" rx="17" ry="22" fill="#f7eedc"/><path d="M23 37L20 10L41 26Q50 21 59 26L80 10L77 37Q87 61 68 71Q49 81 31 71Q13 61 23 37" fill="#c59862"/><path d="M24 41Q29 72 50 72Q71 72 77 41L58 53H42Z" fill="#f7eedc"/><path d="M30 41L38 43M62 43L70 41" stroke="#344337" stroke-width="3" stroke-linecap="round"/><path d="M46 56Q50 53 54 56L50 61Z" fill="#344337"/><path d="M45 65Q50 69 55 65" stroke="#344337" fill="none" stroke-width="2" stroke-linecap="round"/><ellipse cx="31" cy="55" rx="5" ry="3" fill="#e7bbb3"/><ellipse cx="68" cy="55" rx="5" ry="3" fill="#e7bbb3"/><path d="M30 78L38 89M68 78L61 89" stroke="#ae804f" stroke-width="5" stroke-linecap="round"/><ellipse cx="36" cy="108" rx="9" ry="5" fill="#ae804f"/><ellipse cx="63" cy="108" rx="9" ry="5" fill="#ae804f"/></svg>
